<?xml version="1.0" ?><svg data-name="Слой 1" id="Слой_1" viewBox="0 0 512 512" xmlns="http://www.w3.org/2000/svg"><defs><style>.cls-1{fill:#e0b60c;}.cls-2{fill:#ef5a24;}.cls-3{fill:#ff1d25;}.cls-4{fill:#919396;}.cls-5{fill:#414042;}.cls-6{fill:#3fa7f3;}.cls-7{fill:#faec21;}.cls-8{fill:#231f20;}</style></defs><title/><path class="cls-1" d="M17.5,277.06c-2-15,5-20,5-20,9-13,30-13.81,30-13.81,9.25-1.7,20.22-8.48,22.16-8.72s32.48-20.82,78.09-26.15,91.64-1.21,116.6,4.36,81.1,41.89,81.1,41.89,55.08,6.78,73.12,10.65,33.37,8,40,16a67.86,67.86,0,0,1,14.41,32,74.06,74.06,0,0,1,0,24.94l1.94,4.6-1.94,2.67-47.32,2.9s5.16-62-41.18-60.05S349,348.33,349,348.33H216.47c-20.66,0-74.87-2.9-74.87-2.9s9.47-54.73-39.22-55.94-39.95,54.73-39.95,54.73-20.22.72-31-2.18-4.25-26.17-6.19-29.56c0,0-7.76-12.42-7.76-17.42Z"/><path class="cls-2" d="M52,272.33s66-2,78-1,49.88,10,75.94,10,103.84-6.89,115-8.95S341,268.33,352,269.33s71,7,71,7,12,11,20,15,34,10,36,14-1,12,0,21,3.13,18.19.06,19.6-40.06,3.4-40.06,3.4,9.89-67.11-44.55-60.55S350,348.83,350,348.83s-105,.5-114,.5-86-3-86-3,12-61-40-56-43,54.73-43,54.73-22.63,4.27-29.82-2.73-4.18-29-4.18-29-7-6-8-18,.5-17.5.5-17.5Z"/><path class="cls-3" d="M35.5,258.83s11-1,8,9-8,17-14,17-8.36.13-8.36.13-2-16.63.36-21.13S35.5,258.83,35.5,258.83Z"/><circle class="cls-4" cx="105.43" cy="330.57" r="11.5"/><circle class="cls-4" cx="393.95" cy="330.57" r="11.5"/><path class="cls-5" d="M105.87,295.75a35.56,35.56,0,1,0,35.56,35.56A35.57,35.57,0,0,0,105.87,295.75Zm0,63.09a27.53,27.53,0,1,1,27.53-27.53A27.53,27.53,0,0,1,105.87,358.84Z"/><path class="cls-5" d="M393.9,295.75a35.56,35.56,0,1,0,35.56,35.56A35.57,35.57,0,0,0,393.9,295.75Zm0,63.09a27.53,27.53,0,1,1,27.52-27.53A27.53,27.53,0,0,1,393.9,358.84Z"/><path class="cls-6" d="M58,242.07s47.53.26,55.53-3.74,41-22,40-26S138,211,138,211s-34.49,7.34-49.49,16.34C82.8,230.75,58,242.07,58,242.07Z"/><path class="cls-7" d="M422.19,275.73s11.78,1.93,20.5,3.87,14.62,2.66,16.74,2.66a37.52,37.52,0,0,0,5.66-.72s6,7.07,8.19,11.27S478,303.07,478,303.07s-1.85,1.71-5.62,1.47-25.92-10.9-29.93-13.32-19.33-8.23-20.27-10.89A6.28,6.28,0,0,1,422.19,275.73Z"/><path class="cls-8" d="M477.13,306.06l-.83,0c-4.36-.28-27.08-11.4-30.62-13.53-1.29-.78-4-2-6.87-3.32-9-4.09-13.28-6.24-14-8.36a7.7,7.7,0,0,1,.07-5.76l.49-1,1.1.19c.12,0,11.93,2,20.59,3.89,8.13,1.8,14.2,2.62,16.41,2.62a37,37,0,0,0,5.35-.69l.87-.18.58.68c.25.29,6.13,7.24,8.38,11.55s4.68,10.13,4.78,10.38l.41,1-.77.72A8.86,8.86,0,0,1,477.13,306.06Zm-49.84-28.63a5.55,5.55,0,0,0,.31,2.4c.76,1.31,8.37,4.77,12.45,6.63,3.08,1.4,5.74,2.61,7.18,3.48,4.43,2.67,26.09,12.9,29.26,13.1a7.5,7.5,0,0,0,3.64-.56c-.84-2-2.61-6-4.17-9-1.71-3.28-5.94-8.49-7.46-10.33a33.42,33.42,0,0,1-5.07.58c-2.44,0-8.67-.83-17.06-2.7C439.51,279.54,430.63,278,427.29,277.43Z"/><path class="cls-8" d="M109.43,367.63a37.06,37.06,0,1,1,37.07-37.06A37.1,37.1,0,0,1,109.43,367.63Zm0-71.12a34.06,34.06,0,1,0,34.07,34.06A34.1,34.1,0,0,0,109.43,296.51Zm0,63.09a29,29,0,1,1,29-29A29.07,29.07,0,0,1,109.43,359.6Zm0-55.06a26,26,0,1,0,26,26A26.06,26.06,0,0,0,109.43,304.54Z"/><path class="cls-6" d="M276.29,214.69s.67,8.33,5.19,13.5,37.45,23.89,37.45,23.89l32.56,2.82s-31.1-19.12-41.36-24.51S276.29,214.69,276.29,214.69Z"/><path class="cls-8" d="M398,367.63A37.06,37.06,0,1,1,435,330.57,37.1,37.1,0,0,1,398,367.63Zm0-71.12A34.06,34.06,0,1,0,432,330.57,34.1,34.1,0,0,0,398,296.51Zm0,63.09a29,29,0,1,1,29-29A29.06,29.06,0,0,1,398,359.6Zm0-55.06a26,26,0,1,0,26,26A26.06,26.06,0,0,0,398,304.54Z"/><path class="cls-8" d="M363.68,256.94l-39.21-3.4-.28-.16c-1.35-.77-33.21-18.91-37.84-24.21-4.79-5.47-5.53-14-5.56-14.36l-.2-2.5,2.3,1c.24.1,23.74,10.39,33.94,15.74s41.14,24.37,41.45,24.56Zm-38.29-6.33,25.89,2.25c-9.39-5.73-28.34-17.2-35.85-21.14-8.14-4.28-24.91-11.76-31.24-14.56.54,2.73,1.78,7,4.42,10C292.14,231.24,316.08,245.31,325.39,250.61Z"/><path class="cls-8" d="M109.43,343.57a13,13,0,1,1,9.19-22.19h0a13,13,0,0,1-9.19,22.19Zm0-23a10,10,0,1,0,7.07,2.93h0A9.91,9.91,0,0,0,109.43,320.57Z"/><path class="cls-8" d="M398,343.57a13,13,0,1,1,9.19-22.19h0A13,13,0,0,1,398,343.57Zm0-23A10,10,0,1,0,405,323.5h0A9.93,9.93,0,0,0,398,320.57Z"/><path class="cls-3" d="M102,316.83a4.05,4.05,0,0,0-2-5c-2-1-11.67,2.18-15,8-4,7-3,16,0,20,2.16,2.89,7-2,7-2s-3-8-1-13S102,316.83,102,316.83Z"/><path class="cls-3" d="M391,316.83a4.05,4.05,0,0,0-2-5c-2-1-11.67,2.18-15,8-4,7-3,16,0,20,2.16,2.89,7-2,7-2s-3-8-1-13S391,316.83,391,316.83Z"/><path class="cls-8" d="M89.8,342.24h-.28a3.64,3.64,0,0,1-2.72-1.51c-3.4-4.54-4.41-14.1-.1-21.64,2.18-3.81,6.37-6.14,8.68-7.18,2.69-1.22,6.48-2.33,8.29-1.42a5.46,5.46,0,0,1,2.74,6.85l-.25.69-.68.23c-2.33.77-8.66,3.57-10.09,7.13-1.76,4.4,1,11.84,1,11.92l.33.9-.67.68C95.5,339.46,92.6,342.24,89.8,342.24Zm12.09-29.12c-2.22,0-9.78,2.55-12.59,7.46-3.53,6.18-2.89,14.63-.1,18.35a.65.65,0,0,0,.53.31c.9.06,2.44-.92,3.54-1.85-.77-2.39-2.44-8.67-.66-13.11,1.87-4.7,8.74-7.67,11.11-8.58a2.38,2.38,0,0,0-1.39-2.53A1.66,1.66,0,0,0,101.89,313.12Z"/><path class="cls-8" d="M378.8,342.24h-.28a3.64,3.64,0,0,1-2.72-1.51c-3.4-4.54-4.41-14.1-.1-21.64,2.18-3.81,6.37-6.14,8.68-7.18,2.69-1.22,6.48-2.33,8.29-1.42a5.46,5.46,0,0,1,2.74,6.85l-.25.69-.68.23c-2.33.77-8.66,3.57-10.09,7.13-1.76,4.4,1,11.84,1,11.92l.33.9-.67.68C384.5,339.46,381.6,342.24,378.8,342.24Zm12.09-29.12c-2.22,0-9.78,2.55-12.59,7.46-3.53,6.18-2.89,14.63-.1,18.35a.65.65,0,0,0,.53.31c.93.06,2.44-.92,3.54-1.85-.77-2.39-2.44-8.67-.66-13.11,1.87-4.7,8.74-7.67,11.11-8.58a2.38,2.38,0,0,0-1.39-2.53A1.66,1.66,0,0,0,390.89,313.12Z"/><path class="cls-6" d="M128,239.83s30-26,34-27,66-2,81,0,22,5,24,7,36,33,36,33-117-6-128-7S128,239.83,128,239.83Z"/><path class="cls-8" d="M313.1,254.55l-4.18-.22c-1.17-.06-117.15-6-128.06-7s-46.71-6-47.07-6l-3.27-.46,2.5-2.16c5-4.38,30.48-26.29,34.62-27.32,4.77-1.2,67-2,81.56,0,12.6,1.68,21.89,4.45,24.86,7.42,1.95,2,35.61,32.65,35.95,32.95ZM137.49,238.8c9.14,1.25,34.76,4.73,43.65,5.54,9.66.88,102.77,5.7,123.76,6.78-8.48-7.73-31.3-28.56-33-30.23-1.86-1.85-9-4.69-23.14-6.57-15-2-76.76-.95-80.44,0C166.09,214.88,151.23,227,137.49,238.8Z"/><path class="cls-8" d="M174.15,263.36l-33.69-4.08-.29-.2c-.61-.41-3.67-2.58-3.67-5.25a2.56,2.56,0,0,1,1-2c1.42-1.11,3.93-.64,4.8-.43l31.83,4c2.14,0,4.4,1.14,4.4,3.5,0,3-3.61,4.29-4,4.43Zm-32.59-7,32.25,3.91c.78-.33,1.69-1,1.69-1.47,0-.26-.93-.49-1.51-.5h-.18l-32.17-4a6.43,6.43,0,0,0-2.09-.18A6.11,6.11,0,0,0,141.56,256.39Z"/><path class="cls-8" d="M292.5,338.83H159.13l-.12-1.36c0-.43-4.13-43.48-19.41-54.94-16.3-12.22-20.41-36.91-20.58-38l3-.47c0,.24,4.1,24.55,19.42,36,6.92,5.19,12.49,16.42,16.56,33.35a190.93,190.93,0,0,1,3.89,22.35H290.93A223,223,0,0,1,293,300.14c3-23.17,18.68-42,19.34-42.77l2.3,1.93c-.16.19-15.76,18.95-18.66,41.23-2.95,22.55-2,36.56-2,36.7l.11,1.6Z"/><path class="cls-8" d="M97,278.83a11,11,0,1,1,11-11A11,11,0,0,1,97,278.83Zm0-19a8,8,0,1,0,8,8A8,8,0,0,0,97,259.83Z"/><path class="cls-8" d="M222.19,282.9c-39.47,0-83.56-10-84-10.11l.66-2.92c.48.11,48.29,10.95,88.63,10,24.6-.6,52.87-4.51,75.59-7.65,15.32-2.11,28.56-3.94,37.38-4.35,21.9-1,68.32,5.73,70.29,6l-.44,3c-.48-.07-48.11-7-69.71-6-8.69.4-21.86,2.22-37.11,4.33-22.79,3.15-51.16,7.07-75.92,7.67C225.77,282.88,224,282.9,222.19,282.9Z"/><path class="cls-8" d="M436.1,350.21l.14-1.73c0-.32,2.49-32.43-13.28-48.85-6.54-6.81-15.4-10-26.34-9.57-11.43.48-20.56,4.56-27.14,12.12-14.72,16.95-12,46-12,46.28l.16,1.65H223.47c-20.46,0-74.41-2.88-74.95-2.91l-1.68-.09.28-1.66c0-.26,4.29-26-8.68-41.78-6.5-7.91-16.29-12.08-29.1-12.4-12.65-.31-22.38,3.32-29,10.82-13.45,15.31-9.5,41.9-9.45,42.17l.25,1.67-1.68.06c-.84,0-20.58.7-31.43-2.23-8.63-2.33-7.74-15.07-7.16-23.5.19-2.69.43-6.05.06-6.77-.79-1.25-8-12.88-8-18.16v-17.9c-1.87-14.28,4.1-20.07,5.4-21.14,9.13-12.93,29.1-14.17,31-14.26,5.94-1.11,12.67-4.41,17.13-6.59a24.64,24.64,0,0,1,4.9-2.11c.38-.14,1.64-.82,3-1.55,9.18-5,37.09-20.16,75.25-24.62,44.19-5.16,90.66-1.51,117.1,4.39C301,217,353.15,250.32,358,253.46c4.69.58,55.74,6.94,72.9,10.63,16.72,3.59,33.65,7.82,40.88,16.49a69.82,69.82,0,0,1,14.74,32.66,75.78,75.78,0,0,1,.08,25l2.09,5-2.85,3.92Zm-285.78-5.92c9.21.48,54.78,2.82,73.15,2.82h130.9a92.35,92.35,0,0,1,.57-15.77c1.1-9,4.12-21.73,12.28-31.12,7.13-8.22,17-12.65,29.28-13.16,11.83-.5,21.47,3,28.63,10.5,8.77,9.14,12.13,22.59,13.41,32.27a101.5,101.5,0,0,1,.79,17.18l44.94-2.76,1-1.41-1.79-4.25.09-.45a73.16,73.16,0,0,0,0-24.38A67.06,67.06,0,0,0,469.5,282.5c-6.62-7.94-23-12-39.21-15.48-17.77-3.81-72.43-10.56-73-10.63l-.34,0-.29-.19c-.56-.36-56.21-36.24-80.62-41.68-26.2-5.85-72.26-9.46-116.1-4.34-37.59,4.39-65.12,19.36-74.16,24.28-2.68,1.45-3.33,1.8-3.92,1.87a37.27,37.27,0,0,0-4.07,1.85c-4.63,2.26-11.63,5.69-18,6.86l-.21,0c-.21,0-20.41.95-28.87,13.17l-.15.21-.21.15c-.24.19-6.22,4.8-4.38,18.58v18.2c0,3.75,5.44,13.28,7.53,16.63.82,1.42.69,3.9.37,8.51-.52,7.45-1.31,18.71,5,20.39,8.66,2.35,23.89,2.27,28.89,2.17a79.57,79.57,0,0,1-.18-14.33c.93-11.9,4.58-21.78,10.55-28.58,7.2-8.2,17.74-12.19,31.31-11.85s24.27,4.88,31.35,13.5c7.26,8.85,9.4,20.41,9.92,28.55A77.45,77.45,0,0,1,150.32,344.29Zm-68.81-111h0Z"/><path class="cls-8" d="M62.08,245.57H60l-6.82,0,6.2-2.83c.25-.11,24.83-11.32,30.39-14.65,15-9,48.53-16.23,50-16.53,4.82-.88,16.07-2.39,17.28,2.45.34,1.37.91,3.66-17.31,14.65-8.85,5.33-19.06,10.84-23.48,13C108.85,245.34,71.54,245.57,62.08,245.57Zm86.67-31.95a48.32,48.32,0,0,0-8.48.84c-.31.07-34.39,7.39-49,16.16-4,2.37-16.65,8.34-24.43,11.94,15.82-.12,42.59-.87,48-3.57,4.1-2.05,13.72-7.23,22.26-12.34,14.25-8.51,16.53-11.37,16.89-12.09C153.58,214,151.67,213.62,148.75,213.62Z"/><path class="cls-8" d="M23.82,286l-.17-1.4c-.21-1.75-2-17.23.52-22,2.66-5.08,13.82-5.74,15.23-5.8.57,0,6-.38,8.65,2.92,1.6,1.95,1.89,4.65.89,8-3.45,11.49-9.07,18.07-15.44,18.07-5.87,0-8.25.13-8.28.13Zm16.46-26.23c-.39,0-.63,0-.64,0h-.07c-4.17.18-11.32,1.48-12.74,4.2s-1,12.51-.35,18.88c1.3,0,3.55-.08,7-.08,4.87,0,9.57-5.95,12.56-15.93.71-2.34.59-4.11-.33-5.24C44.38,260,41.55,259.81,40.28,259.81Z"/></svg>